<svg width="45" height="40" viewBox="0 0 45 40" fill="none" xmlns="http://www.w3.org/2000/svg">
<path d="M15.0726 27.0896C15.313 27.3434 15.6713 27.5031 16.075 27.5031C16.4243 27.5031 16.7372 27.3803 16.9731 27.1838C17.2044 26.9913 17.3586 26.7252 17.3904 26.4263C17.2543 26.5246 17.0774 26.5819 16.8914 26.5819C16.4424 26.5819 16.0795 26.2544 16.0795 25.849V14.2949C16.1203 14.2949 16.1566 14.2949 16.1929 14.299L20.7061 18.3769L19.4814 19.4824C18.9462 19.9655 18.0708 19.9655 17.5355 19.4824C17.3133 19.2818 17.1817 19.032 17.1409 18.7741C16.5422 19.4906 16.6057 20.5141 17.3269 21.1651C17.844 21.6319 18.5742 21.7916 19.241 21.6483C19.2002 22.7578 19.6492 23.8756 20.5881 24.7231C20.697 24.8214 20.8059 24.9114 20.9238 24.9974C21.3638 25.325 21.8718 25.5788 22.4161 25.7344C22.4388 25.7426 22.4614 25.7467 22.4841 25.7549C22.5068 25.7508 22.5295 25.7426 22.5522 25.7344C23.0965 25.5747 23.5999 25.3209 24.0444 24.9974C24.1578 24.9114 24.2712 24.8214 24.3801 24.7231C25.319 23.8797 25.7681 22.7578 25.7272 21.6483C26.394 21.7916 27.1243 21.6319 27.6414 21.1651C28.3671 20.5101 28.4261 19.4906 27.8273 18.7741C27.7865 19.032 27.655 19.2859 27.4373 19.4824C26.8975 19.9655 26.0266 19.9655 25.4868 19.4824L24.2622 18.3769L28.7753 14.3031C28.8298 14.3031 28.8887 14.299 28.9431 14.2949V25.849C28.9431 26.2544 28.5803 26.5819 28.1312 26.5819C27.9407 26.5819 27.7684 26.5246 27.6323 26.4263C27.664 26.7252 27.8183 26.9913 28.0496 27.1838C28.2855 27.3803 28.603 27.5031 28.9477 27.5031C29.3468 27.5031 29.7052 27.3393 29.9501 27.0896C30.3992 28.0927 31.4878 28.7969 32.7578 28.7969C34.4315 28.7969 35.7923 27.5727 35.7923 26.0578C35.7923 25.284 35.4385 24.588 34.867 24.0885C34.8488 24.0721 34.8307 24.0598 34.8171 24.0434C34.7762 24.0066 34.7309 23.9779 34.6855 23.9493C34.4723 23.8183 34.2138 23.7405 33.9371 23.7405C33.7103 23.7405 33.4971 23.7896 33.3157 23.8838C32.8984 24.0844 32.6172 24.4774 32.6172 24.9319C32.6172 25.0424 32.6353 25.1489 32.6671 25.2513C32.8213 25.7549 33.3338 26.1233 33.9416 26.1233C34.6674 26.1233 35.2616 25.5911 35.2616 24.9319C35.2616 24.7681 35.2253 24.6125 35.1618 24.4733C35.3296 24.7436 35.4249 25.0588 35.4249 25.3905C35.4249 26.4386 34.4814 27.2902 33.3202 27.2902C32.1591 27.2902 31.2156 26.4386 31.2156 25.3905V20.9891C31.2156 20.5469 31.5059 20.1702 31.9232 19.9942C31.9685 20.334 32.2861 20.596 32.6716 20.596C33.0934 20.596 33.4336 20.289 33.4336 19.9082C33.4336 19.5274 33.0934 19.2244 32.6716 19.2244C32.2951 19.2244 31.9867 19.4701 31.9232 19.7895C31.5059 19.6175 31.2111 19.2367 31.2111 18.7945V14.4177C31.2111 14.4177 31.2201 14.4177 31.2247 14.4177V13.5538C31.2247 12.5057 32.1636 11.6582 33.3248 11.6582C33.801 11.6582 34.2455 11.8015 34.5948 12.043C34.3862 10.6878 33.098 9.64378 31.5376 9.64378C30.6441 9.64378 29.8412 9.99179 29.2788 10.5404L22.5204 16.6409L15.8936 10.6592C15.3266 10.0409 14.4738 9.64378 13.5168 9.64378C11.9565 9.64378 10.6683 10.6878 10.4596 12.043C10.8134 11.8015 11.2534 11.6582 11.7297 11.6582C12.8908 11.6582 13.8298 12.5057 13.8298 13.5538V14.4177C13.8298 14.4177 13.8388 14.4177 13.8434 14.4177V18.7945C13.8434 19.3514 13.3807 19.814 12.782 19.8795C12.7638 19.5151 12.4327 19.2203 12.0245 19.2203C11.6163 19.2203 11.267 19.5274 11.267 19.9041C11.267 20.2808 11.6072 20.5919 12.0245 20.5919C12.4418 20.5919 12.7865 20.2849 12.7865 19.9041C12.7865 19.9041 12.7865 19.9 12.7865 19.8959C13.3852 19.9655 13.8479 20.4241 13.8479 20.985V25.3864C13.8479 26.4345 12.9044 27.2861 11.7433 27.2861C10.5821 27.2861 9.63865 26.4345 9.63865 25.3864C9.63865 25.0547 9.7339 24.7395 9.90172 24.4692C9.83822 24.6125 9.80194 24.7681 9.80194 24.9278C9.80194 25.587 10.3916 26.1192 11.1219 26.1192C11.7251 26.1192 12.2377 25.7508 12.3919 25.2513C12.4236 25.1489 12.4418 25.0384 12.4418 24.9278C12.4418 24.4979 12.1923 24.1253 11.8113 23.9124C11.6117 23.7978 11.3713 23.7364 11.1173 23.7364C10.8406 23.7364 10.5821 23.8142 10.3689 23.9452C10.3236 23.9738 10.2782 24.0066 10.2374 24.0393C10.2192 24.0516 10.2011 24.068 10.1875 24.0844C9.61597 24.5839 9.26217 25.2799 9.26217 26.0537C9.26217 27.5645 10.6229 28.7928 12.2966 28.7928C13.5667 28.7928 14.6553 28.0886 15.1043 27.0855M22.4932 24.2113C22.4932 24.2113 22.4841 24.2195 22.4796 24.2236C22.4796 24.2236 22.4705 24.2154 22.466 24.2113C21.1778 23.0485 21.1778 21.161 22.466 19.9983L22.4796 19.986L22.4932 19.9983C23.7814 21.161 23.7814 23.0485 22.4932 24.2113Z" fill="#AA8B7A"/>
<path d="M1.13396 21.2716C1.71454 21.2716 2.18627 20.8785 2.25431 20.3708C2.74871 20.5756 3.09797 20.985 3.22951 21.4681C3.70124 28.3998 7.4932 35.1021 14.6145 38.3899C17.345 39.5731 20.003 40.0562 22.5113 39.9948C25.0197 40.0562 27.6731 39.5731 30.3992 38.3899C37.5386 35.094 41.335 28.3629 41.7886 21.4149C41.9338 20.9563 42.2694 20.5715 42.7457 20.3708C42.8137 20.8785 43.2855 21.2716 43.866 21.2716C44.492 21.2716 45 20.813 45 20.248C45 19.683 44.492 19.2244 43.866 19.2244C43.3081 19.2244 42.8455 19.5888 42.7502 20.072C42.3148 19.8918 41.9791 19.5602 41.8068 19.1548C41.7841 18.6226 41.7478 18.0903 41.6888 17.5581V17.4434H41.6798C40.9041 10.9089 37.153 4.72243 30.4037 1.60667C27.6777 0.431601 25.0242 -0.0515267 22.5159 0.00579352C20.003 -0.0597153 17.345 0.427507 14.6099 1.61076C7.8606 4.72652 4.10946 10.9089 3.33384 17.4475C3.32477 17.4475 3.32023 17.4475 3.31116 17.4475V17.7014C3.26126 18.1722 3.22498 18.6471 3.20683 19.1221C3.04354 19.5438 2.69882 19.8877 2.24977 20.072C2.15452 19.5888 1.69187 19.2244 1.13396 19.2244C0.508013 19.2244 0 19.683 0 20.248C0 20.813 0.508013 21.2716 1.13396 21.2716ZM15.5398 3.1625C17.6852 1.97515 20.0121 1.38148 22.3435 1.2955C24.7838 1.33644 27.2286 1.91783 29.4738 3.1625C42.3193 10.176 42.3239 29.841 29.4738 36.8545C27.342 38.0378 25.0242 38.6314 22.7018 38.7215C20.248 38.6888 17.7895 38.1074 15.5352 36.8545C2.68975 29.841 2.69429 10.176 15.5352 3.1625" fill="#AA8B7A"/>
</svg>
